<?xml version="1.0" encoding="UTF-8"?>
<!DOCTYPE svg PUBLIC "-//W3C//DTD SVG 1.1//EN" "http://www.w3.org/Graphics/SVG/1.1/DTD/svg11.dtd">
<svg xmlns="http://www.w3.org/2000/svg" version="1.1" width="847px" height="663px" style="shape-rendering:geometricPrecision; text-rendering:geometricPrecision; image-rendering:optimizeQuality; fill-rule:evenodd; clip-rule:evenodd" xmlns:xlink="http://www.w3.org/1999/xlink">
<g><path style="opacity:0.454" fill="#5f1f28" d="M 451.5,15.5 C 433.213,16.4739 414.88,16.8073 396.5,16.5C 396.5,16.1667 396.5,15.8333 396.5,15.5C 414.833,14.1667 433.167,14.1667 451.5,15.5 Z"/></g>
<g><path style="opacity:0.067" fill="#1d0d0d" d="M 396.5,15.5 C 396.5,15.8333 396.5,16.1667 396.5,16.5C 387.487,17.4454 378.487,18.4454 369.5,19.5C 369.611,18.8826 369.944,18.3826 370.5,18C 379.15,16.9299 387.817,16.0966 396.5,15.5 Z"/></g>
<g><path style="opacity:0.061" fill="#1c0a09" d="M 451.5,15.5 C 459.828,16.2381 468.161,17.0714 476.5,18C 477.056,18.3826 477.389,18.8826 477.5,19.5C 469.334,18.1185 461.001,17.2852 452.5,17C 451.944,16.6174 451.611,16.1174 451.5,15.5 Z"/></g>
<g><path style="opacity:0.999" fill="#fe425e" d="M 451.5,15.5 C 451.611,16.1174 451.944,16.6174 452.5,17C 461.001,17.2852 469.334,18.1185 477.5,19.5C 502.164,24.6099 526.164,31.9432 549.5,41.5C 549.833,41.5 550.167,41.5 550.5,41.5C 573.538,52.8984 595.538,65.8984 616.5,80.5C 617.833,82.5 619.5,84.1667 621.5,85.5C 623.968,90.2335 627.134,94.5668 631,98.5C 631.333,98.1667 631.667,97.8333 632,97.5C 634.957,101.027 637.791,103.861 640.5,106C 640.167,106.333 639.833,106.667 639.5,107C 640.448,107.483 641.448,107.649 642.5,107.5C 642.5,108.5 642.5,109.5 642.5,110.5C 643.5,110.5 644.5,110.5 645.5,110.5C 645.33,111.822 645.663,112.989 646.5,114C 648.473,114.495 650.473,114.662 652.5,114.5C 654.167,115.833 655.833,117.167 657.5,118.5C 657.5,119.167 657.833,119.5 658.5,119.5C 659.08,121.749 660.413,123.415 662.5,124.5C 671.249,135.24 679.582,146.24 687.5,157.5C 687.75,159.674 688.75,161.341 690.5,162.5C 691.11,164.434 692.11,166.101 693.5,167.5C 693.953,169.565 694.953,171.232 696.5,172.5C 696.427,174.027 697.094,175.027 698.5,175.5C 706.737,192.635 714.404,209.969 721.5,227.5C 722.568,233.132 724.235,238.465 726.5,243.5C 727.055,247.397 728.055,251.063 729.5,254.5C 729.5,254.833 729.5,255.167 729.5,255.5C 729.565,258.428 730.232,261.095 731.5,263.5C 732.082,266.832 732.916,270.166 734,273.5C 734.499,277.152 734.665,280.818 734.5,284.5C 738.917,317.983 738.25,351.316 732.5,384.5C 732.81,387.713 732.477,390.713 731.5,393.5C 727.613,405.295 724.28,417.295 721.5,429.5C 713.654,448.026 705.32,466.359 696.5,484.5C 695.11,485.899 694.11,487.566 693.5,489.5C 673.558,521.123 649.225,549.123 620.5,573.5C 616.854,575.817 613.52,578.484 610.5,581.5C 601.721,586.729 593.054,592.229 584.5,598C 575.349,602.755 566.349,607.589 557.5,612.5C 553.418,613.376 549.751,615.043 546.5,617.5C 535.761,621.031 525.095,624.865 514.5,629C 481.683,637.977 448.016,642.144 413.5,641.5C 405.075,641.339 396.742,640.673 388.5,639.5C 383.402,638.043 378.069,637.376 372.5,637.5C 351.857,634.496 331.857,629.496 312.5,622.5C 311.486,621.326 310.153,620.66 308.5,620.5C 308.167,620.5 307.833,620.5 307.5,620.5C 280.281,608.719 254.614,594.052 230.5,576.5C 229.738,574.738 228.404,573.738 226.5,573.5C 213.557,561.893 200.891,549.893 188.5,537.5C 174.248,519.973 161.248,501.64 149.5,482.5C 144.998,471.486 139.832,460.819 134,450.5C 129.632,436.557 124.799,422.891 119.5,409.5C 119.698,404.464 118.698,399.797 116.5,395.5C 116.5,394.833 116.5,394.167 116.5,393.5C 116.046,388.596 115.046,383.93 113.5,379.5C 113.5,378.833 113.5,378.167 113.5,377.5C 109.314,349.596 108.648,321.596 111.5,293.5C 112.273,288.971 112.94,284.305 113.5,279.5C 113.5,279.167 113.5,278.833 113.5,278.5C 114.285,276.626 114.952,274.626 115.5,272.5C 116.304,269.508 117.804,266.841 120,264.5C 120.333,259.167 120.667,253.833 121,248.5C 122.992,244.04 124.159,239.373 124.5,234.5C 128.247,221.524 132.914,208.857 138.5,196.5C 138.5,196.167 138.5,195.833 138.5,195.5C 142.058,190.183 145.058,184.516 147.5,178.5C 148.401,177.71 149.068,176.71 149.5,175.5C 151.008,173.819 152.008,171.819 152.5,169.5C 154.25,168.341 155.25,166.674 155.5,164.5C 165.03,149.961 175.363,135.961 186.5,122.5C 188.633,120.909 190.299,118.909 191.5,116.5C 202.828,106.505 213.828,96.1717 224.5,85.5C 225.71,85.0679 226.71,84.4013 227.5,83.5C 228.833,82.8333 229.833,81.8333 230.5,80.5C 241.505,73.1592 252.505,65.8259 263.5,58.5C 267.335,56.7505 271.001,54.7505 274.5,52.5C 276.819,52.0075 278.819,51.0075 280.5,49.5C 282.027,49.573 283.027,48.9063 283.5,47.5C 287.593,46.6176 291.26,44.951 294.5,42.5C 297.077,42.5449 299.077,41.5449 300.5,39.5C 304.297,39.1277 307.63,37.7943 310.5,35.5C 317.042,34.0413 323.375,31.8746 329.5,29C 334.854,27.8276 340.187,26.6609 345.5,25.5C 348.152,25.5905 350.485,24.9238 352.5,23.5C 358.524,22.8939 364.191,21.5605 369.5,19.5C 378.487,18.4454 387.487,17.4454 396.5,16.5C 414.88,16.8073 433.213,16.4739 451.5,15.5 Z"/></g>
<g><path style="opacity:0.045" fill="#110405" d="M 369.5,19.5 C 364.191,21.5605 358.524,22.8939 352.5,23.5C 349.848,23.4095 347.515,24.0762 345.5,25.5C 340.187,26.6609 334.854,27.8276 329.5,29C 323.375,31.8746 317.042,34.0413 310.5,35.5C 312.792,33.7102 315.459,32.2102 318.5,31C 327.706,28.6459 336.706,25.9792 345.5,23C 353.337,20.8609 361.337,19.6943 369.5,19.5 Z"/></g>
<g><path style="opacity:0.447" fill="#a63742" d="M 352.5,23.5 C 350.485,24.9238 348.152,25.5905 345.5,25.5C 347.515,24.0762 349.848,23.4095 352.5,23.5 Z"/></g>
<g><path style="opacity:0.024" fill="#1d0c0b" d="M 477.5,19.5 C 499.969,21.9533 521.469,27.6199 542,36.5C 544.862,37.91 547.362,39.5767 549.5,41.5C 526.164,31.9432 502.164,24.6099 477.5,19.5 Z"/></g>
<g><path style="opacity:0.011" fill="#130506" d="M 310.5,35.5 C 307.63,37.7943 304.297,39.1277 300.5,39.5C 303.1,36.5397 306.433,35.2063 310.5,35.5 Z"/></g>
<g><path style="opacity:0.51" fill="#512025" d="M 300.5,39.5 C 299.077,41.5449 297.077,42.5449 294.5,42.5C 296.216,41.0292 298.216,40.0292 300.5,39.5 Z"/></g>
<g><path style="opacity:0.014" fill="#110303" d="M 294.5,42.5 C 291.26,44.951 287.593,46.6176 283.5,47.5C 283.47,46.5028 283.97,45.8361 285,45.5C 288.124,44.1721 291.29,43.1721 294.5,42.5 Z"/></g>
<g><path style="opacity:0.029" fill="#130807" d="M 283.5,47.5 C 283.027,48.9063 282.027,49.573 280.5,49.5C 280.821,47.9519 281.821,47.2852 283.5,47.5 Z"/></g>
<g><path style="opacity:0.034" fill="#1a0a0b" d="M 280.5,49.5 C 278.819,51.0075 276.819,52.0075 274.5,52.5C 275.784,50.3862 277.784,49.3862 280.5,49.5 Z"/></g>
<g><path style="opacity:0.02" fill="#15090b" d="M 274.5,52.5 C 271.001,54.7505 267.335,56.7505 263.5,58.5C 266.163,54.8729 269.83,52.8729 274.5,52.5 Z"/></g>
<g><path style="opacity:0.026" fill="#170908" d="M 263.5,58.5 C 252.505,65.8259 241.505,73.1592 230.5,80.5C 234.819,75.5235 239.819,71.1901 245.5,67.5C 251.549,64.4143 257.549,61.4143 263.5,58.5 Z"/></g>
<g><path style="opacity:0.024" fill="#190c09" d="M 550.5,41.5 C 572.667,50.0082 593.334,61.3415 612.5,75.5C 613.857,77.1856 615.19,78.8523 616.5,80.5C 595.538,65.8984 573.538,52.8984 550.5,41.5 Z"/></g>
<g><path style="opacity:0.071" fill="#1e0d0c" d="M 230.5,80.5 C 229.833,81.8333 228.833,82.8333 227.5,83.5C 227.5,81.5 228.5,80.5 230.5,80.5 Z"/></g>
<g><path style="opacity:0.02" fill="#271415" d="M 616.5,80.5 C 619.5,80.8333 621.167,82.5 621.5,85.5C 619.5,84.1667 617.833,82.5 616.5,80.5 Z"/></g>
<g><path style="opacity:0.006" fill="#160c0d" d="M 227.5,83.5 C 226.71,84.4013 225.71,85.0679 224.5,85.5C 224.821,83.9519 225.821,83.2852 227.5,83.5 Z"/></g>
<g><path style="opacity:0.02" fill="#090000" d="M 624.5,86.5 C 625.833,86.5 626.5,87.1667 626.5,88.5C 625.5,88.1667 624.833,87.5 624.5,86.5 Z"/></g>
<g><path style="opacity:0.904" fill="#e34053" d="M 621.5,85.5 C 622.791,85.2627 623.791,85.596 624.5,86.5C 624.833,87.5 625.5,88.1667 626.5,88.5C 635.473,96.8063 644.14,105.473 652.5,114.5C 650.473,114.662 648.473,114.495 646.5,114C 645.663,112.989 645.33,111.822 645.5,110.5C 644.5,110.5 643.5,110.5 642.5,110.5C 642.5,109.5 642.5,108.5 642.5,107.5C 641.448,107.649 640.448,107.483 639.5,107C 639.833,106.667 640.167,106.333 640.5,106C 637.791,103.861 634.957,101.027 632,97.5C 631.667,97.8333 631.333,98.1667 631,98.5C 627.134,94.5668 623.968,90.2335 621.5,85.5 Z"/></g>
<g><path style="opacity:0.025" fill="#0c0203" d="M 626.5,88.5 C 627.93,88.4208 629.264,88.7542 630.5,89.5C 638.167,97.1667 645.833,104.833 653.5,112.5C 655.278,114.264 656.611,116.264 657.5,118.5C 655.833,117.167 654.167,115.833 652.5,114.5C 644.14,105.473 635.473,96.8063 626.5,88.5 Z"/></g>
<g><path style="opacity:0.011" fill="#100606" d="M 224.5,85.5 C 213.828,96.1717 202.828,106.505 191.5,116.5C 193.862,112.289 196.862,108.455 200.5,105C 206.316,100.018 211.983,94.8512 217.5,89.5C 219.61,87.7111 221.944,86.3777 224.5,85.5 Z"/></g>
<g><path style="opacity:0.176" fill="#291213" d="M 658.5,119.5 C 660.587,120.585 661.92,122.251 662.5,124.5C 660.413,123.415 659.08,121.749 658.5,119.5 Z"/></g>
<g><path style="opacity:0.188" fill="#1e0505" d="M 191.5,116.5 C 190.299,118.909 188.633,120.909 186.5,122.5C 187.247,119.638 188.914,117.638 191.5,116.5 Z"/></g>
<g><path style="opacity:0.024" fill="#140506" d="M 662.5,124.5 C 663.675,124.281 664.675,124.614 665.5,125.5C 674.824,134.821 682.158,145.487 687.5,157.5C 679.582,146.24 671.249,135.24 662.5,124.5 Z"/></g>
<g><path style="opacity:0.023" fill="#160808" d="M 186.5,122.5 C 175.363,135.961 165.03,149.961 155.5,164.5C 155.351,163.448 155.517,162.448 156,161.5C 162.932,149.963 170.599,138.963 179,128.5C 181.106,125.882 183.606,123.882 186.5,122.5 Z"/></g>
<g><path style="opacity:0.017" fill="#1b0a09" d="M 687.5,157.5 C 689.408,158.486 690.408,160.152 690.5,162.5C 688.75,161.341 687.75,159.674 687.5,157.5 Z"/></g>
<g><path style="opacity:0.029" fill="#1e1013" d="M 155.5,164.5 C 155.25,166.674 154.25,168.341 152.5,169.5C 152.259,166.966 153.259,165.3 155.5,164.5 Z"/></g>
<g><path style="opacity:0.094" fill="#1a0807" d="M 690.5,162.5 C 692.727,163.401 693.727,165.067 693.5,167.5C 692.11,166.101 691.11,164.434 690.5,162.5 Z"/></g>
<g><path style="opacity:0.02" fill="#1b0d0e" d="M 693.5,167.5 C 695.741,168.3 696.741,169.966 696.5,172.5C 694.953,171.232 693.953,169.565 693.5,167.5 Z"/></g>
<g><path style="opacity:0.012" fill="#140909" d="M 696.5,172.5 C 698.048,172.821 698.715,173.821 698.5,175.5C 697.094,175.027 696.427,174.027 696.5,172.5 Z"/></g>
<g><path style="opacity:0.051" fill="#20090d" d="M 152.5,169.5 C 152.008,171.819 151.008,173.819 149.5,175.5C 149.386,172.784 150.386,170.784 152.5,169.5 Z"/></g>
<g><path style="opacity:1" fill="#632d34" d="M 440.5,173.5 C 426.482,173.324 412.482,173.657 398.5,174.5C 399.952,173.698 401.618,173.198 403.5,173C 416.007,172.173 428.34,172.34 440.5,173.5 Z"/></g>
<g><path style="opacity:0.026" fill="#070101" d="M 149.5,175.5 C 149.068,176.71 148.401,177.71 147.5,178.5C 147.285,176.821 147.952,175.821 149.5,175.5 Z"/></g>
<g><path style="opacity:0.017" fill="#0f0403" d="M 147.5,178.5 C 145.058,184.516 142.058,190.183 138.5,195.5C 138.433,193.599 138.767,191.766 139.5,190C 141.475,186.55 143.308,183.05 145,179.5C 145.671,178.748 146.504,178.414 147.5,178.5 Z"/></g>
<g><path style="opacity:0.044" fill="#140505" d="M 698.5,175.5 C 699.496,175.414 700.329,175.748 701,176.5C 708.281,190.736 714.781,205.403 720.5,220.5C 721.223,222.782 721.557,225.116 721.5,227.5C 714.404,209.969 706.737,192.635 698.5,175.5 Z"/></g>
<g><path style="opacity:1" fill="#fa425e" d="M 487.5,259.5 C 485.86,258.21 485.36,256.543 486,254.5C 493.177,243.472 500.344,232.472 507.5,221.5C 509.601,218.821 511.601,215.988 513.5,213C 525.563,217.719 534.563,226.052 540.5,238C 526.367,247.571 512.033,256.905 497.5,266C 496.5,266.667 495.5,266.667 494.5,266C 492.556,263.371 490.223,261.204 487.5,259.5 Z"/></g>
<g><path style="opacity:0.041" fill="#130506" d="M 138.5,196.5 C 132.914,208.857 128.247,221.524 124.5,234.5C 123.833,235.5 123.167,236.5 122.5,237.5C 125.451,227.524 128.451,217.524 131.5,207.5C 132.932,203.107 135.266,199.44 138.5,196.5 Z"/></g>
<g><path style="opacity:0.02" fill="#150504" d="M 721.5,227.5 C 724.898,232.025 726.565,237.359 726.5,243.5C 724.235,238.465 722.568,233.132 721.5,227.5 Z"/></g>
<g><path style="opacity:0.016" fill="#180707" d="M 122.5,237.5 C 122.605,241.258 121.605,244.592 119.5,247.5C 119.804,244.478 120.304,241.478 121,238.5C 121.383,237.944 121.883,237.611 122.5,237.5 Z"/></g>
<g><path style="opacity:1" fill="#f5415c" d="M 486.5,267.5 C 501.041,282.921 509.374,301.255 511.5,322.5C 510.194,373.297 484.861,404.464 435.5,416C 390.17,418.643 358.67,399.143 341,357.5C 338.871,350.987 337.704,344.32 337.5,337.5C 337.448,328.482 337.782,319.482 338.5,310.5C 347.909,275.258 370.242,252.758 405.5,243C 436.638,238.027 463.638,246.194 486.5,267.5 Z"/></g>
<g><path style="opacity:0.03" fill="#120204" d="M 726.5,243.5 C 727.117,243.611 727.617,243.944 728,244.5C 728.826,247.793 729.326,251.126 729.5,254.5C 728.055,251.063 727.055,247.397 726.5,243.5 Z"/></g>
<g><path style="opacity:0.129" fill="#1d0a0f" d="M 119.5,248.5 C 119.047,252.748 118.047,256.748 116.5,260.5C 116.781,256.812 117.281,253.145 118,249.5C 118.383,248.944 118.883,248.611 119.5,248.5 Z"/></g>
<g><path style="opacity:1" fill="#2e2e2f" d="M 442.5,402.5 C 438.64,402.808 434.974,403.475 431.5,404.5C 399.155,406.91 374.322,394.577 357,367.5C 345.555,343.938 344.555,319.938 354,295.5C 371.72,263.491 398.886,249.325 435.5,253C 469.856,260.025 491.023,280.525 499,314.5C 502.93,346.755 492.096,372.588 466.5,392C 458.794,396.394 450.794,399.894 442.5,402.5 Z"/></g>
<g><path style="opacity:0.038" fill="#241112" d="M 729.5,255.5 C 731.223,257.78 731.889,260.447 731.5,263.5C 730.232,261.095 729.565,258.428 729.5,255.5 Z"/></g>
<g><path style="opacity:1" fill="#313132" d="M 467.5,179.5 C 514.949,194.114 548.782,224.114 569,269.5C 581.348,299.248 583.848,329.915 576.5,361.5C 574.943,358.846 573.11,356.18 571,353.5C 570.316,354.784 570.483,355.951 571.5,357C 570.672,357.915 569.672,358.581 568.5,359C 569.167,361 569.833,363 570.5,365C 567.007,366.478 566.674,368.478 569.5,371C 568.833,371.333 568.167,371.667 567.5,372C 569.017,374.761 568.184,376.594 565,377.5C 564.55,379.519 563.717,381.352 562.5,383C 564.422,384.46 565.089,386.127 564.5,388C 563.333,388.5 562.5,389.333 562,390.5C 561.683,388.699 561.016,388.366 560,389.5C 557.641,392.124 557.975,392.791 561,391.5C 561.563,392.725 561.23,393.725 560,394.5C 559.259,393.359 558.425,393.359 557.5,394.5C 556.719,393.271 556.219,391.938 556,390.5C 554.992,390.982 553.825,391.148 552.5,391C 553.48,395.862 552.48,396.362 549.5,392.5C 552.064,390.684 552.064,388.851 549.5,387C 552.624,385.459 552.957,383.625 550.5,381.5C 549.719,382.737 548.719,383.737 547.5,384.5C 546.694,382.224 545.694,379.891 544.5,377.5C 544.608,376.558 544.941,375.725 545.5,375C 549.35,374.438 551.183,372.271 551,368.5C 549.458,370.304 547.791,371.971 546,373.5C 545.085,372.672 544.419,371.672 544,370.5C 543.667,371.5 543.333,372.5 543,373.5C 542,372.167 541,372.167 540,373.5C 539.647,372.328 539.813,371.162 540.5,370C 540.108,368.989 539.441,368.489 538.5,368.5C 540.335,367.572 540.668,366.406 539.5,365C 540.362,362.266 541.195,362.099 542,364.5C 544.558,360.542 543.392,358.876 538.5,359.5C 538.33,358.178 538.663,357.011 539.5,356C 535.661,352.283 535.661,348.45 539.5,344.5C 537.838,343.885 535.838,343.051 533.5,342C 535.618,341.74 537.284,340.74 538.5,339C 536.343,338.922 534.343,338.755 532.5,338.5C 532.167,339.167 531.833,339.833 531.5,340.5C 530.24,338.647 530.24,336.814 531.5,335C 530.874,334.25 530.374,333.416 530,332.5C 526.89,333.673 526.723,333.173 529.5,331C 527.386,329.502 526.886,327.669 528,325.5C 527.667,325.167 527.333,324.833 527,324.5C 525.88,326.414 525.714,328.248 526.5,330C 526.15,331.257 525.483,331.591 524.5,331C 524.833,330.667 525.167,330.333 525.5,330C 522.263,327.581 521.93,324.915 524.5,322C 524,321.5 523.5,321 523,320.5C 522.558,322.679 521.558,323.345 520,322.5C 519.955,319.666 519.121,317.166 517.5,315C 518.654,314.086 518.487,313.253 517,312.5C 516.333,313.833 515.667,313.833 515,312.5C 514.647,313.672 514.813,314.838 515.5,316C 515.108,317.011 514.441,317.511 513.5,317.5C 515.991,318.541 515.991,319.374 513.5,320C 514.167,320.667 514.833,321.333 515.5,322C 515.105,325.935 514.439,330.102 513.5,334.5C 512.833,330.353 512.166,326.353 511.5,322.5C 509.374,301.255 501.041,282.921 486.5,267.5C 486.918,266.778 487.584,266.278 488.5,266C 486.787,264.622 485.453,262.955 484.5,261C 485.527,260.487 486.527,259.987 487.5,259.5C 490.223,261.204 492.556,263.371 494.5,266C 495.5,266.667 496.5,266.667 497.5,266C 512.033,256.905 526.367,247.571 540.5,238C 534.563,226.052 525.563,217.719 513.5,213C 511.601,215.988 509.601,218.821 507.5,221.5C 507.539,219.641 506.706,218.308 505,217.5C 503.542,219.96 501.709,222.127 499.5,224C 499.833,224.333 500.167,224.667 500.5,225C 497.939,226.49 495.773,228.323 494,230.5C 493,229.5 492,228.5 491,227.5C 490.667,228.5 490.333,229.5 490,230.5C 489.697,228.112 488.863,225.945 487.5,224C 489.146,222.445 489.479,220.779 488.5,219C 491.362,217.451 493.362,215.118 494.5,212C 494.167,211.5 493.833,211 493.5,210.5C 492.304,210.846 492.304,211.346 493.5,212C 491.256,214.303 489.59,213.97 488.5,211C 486.905,211.617 485.572,211.284 484.5,210C 484.944,208.467 485.277,206.967 485.5,205.5C 483.86,203.86 482.194,202.194 480.5,200.5C 481.025,199.808 481.692,199.308 482.5,199C 481.333,197.833 480.167,196.667 479,195.5C 479.536,197.447 479.202,199.447 478,201.5C 477.332,197.363 476.832,193.363 476.5,189.5C 477.167,189.167 477.833,188.833 478.5,188.5C 475.57,187.539 472.903,186.206 470.5,184.5C 468.796,183.932 467.296,183.932 466,184.5C 466.379,182.925 466.212,181.425 465.5,180C 466.094,179.536 466.761,179.369 467.5,179.5 Z"/></g>
<g><path style="opacity:0.912" fill="#de3a53" d="M 124.5,234.5 C 124.159,239.373 122.992,244.04 121,248.5C 120.667,253.833 120.333,259.167 120,264.5C 117.804,266.841 116.304,269.508 115.5,272.5C 115.264,269.391 115.597,266.391 116.5,263.5C 116.5,262.5 116.5,261.5 116.5,260.5C 118.047,256.748 119.047,252.748 119.5,248.5C 119.5,248.167 119.5,247.833 119.5,247.5C 121.605,244.592 122.605,241.258 122.5,237.5C 123.167,236.5 123.833,235.5 124.5,234.5 Z"/></g>
<g><path style="opacity:0.114" fill="#290e14" d="M 116.5,263.5 C 115.597,266.391 115.264,269.391 115.5,272.5C 114.952,274.626 114.285,276.626 113.5,278.5C 113.55,274.812 113.884,271.145 114.5,267.5C 114.585,265.667 115.252,264.334 116.5,263.5 Z"/></g>
<g><path style="opacity:0.008" fill="#1d0b0c" d="M 113.5,279.5 C 112.94,284.305 112.273,288.971 111.5,293.5C 111.334,289.154 111.501,284.821 112,280.5C 112.383,279.944 112.883,279.611 113.5,279.5 Z"/></g>
<g><path style="opacity:1" fill="#ce3e53" d="M 436.5,283.5 C 428.523,282.51 420.523,282.343 412.5,283C 409.204,284.511 405.871,285.677 402.5,286.5C 404.965,284.163 407.965,282.663 411.5,282C 418.833,281.333 426.167,281.333 433.5,282C 434.737,282.232 435.737,282.732 436.5,283.5 Z"/></g>
<g><path style="opacity:1" fill="#fc425e" d="M 436.5,283.5 C 458.233,290.628 469.566,305.628 470.5,328.5C 468.161,358.339 451.994,374.339 422,376.5C 396.89,373.891 381.723,360.224 376.5,335.5C 376.152,328.045 376.818,320.712 378.5,313.5C 382.588,300.971 390.588,291.971 402.5,286.5C 405.871,285.677 409.204,284.511 412.5,283C 420.523,282.343 428.523,282.51 436.5,283.5 Z"/></g>
<g><path style="opacity:0.012" fill="#190b0d" d="M 111.5,293.5 C 108.648,321.596 109.314,349.596 113.5,377.5C 112.883,377.389 112.383,377.056 112,376.5C 111.862,369.035 110.862,361.702 109,354.5C 108.333,337.5 108.333,320.5 109,303.5C 109.311,299.91 110.144,296.577 111.5,293.5 Z"/></g>
<g><path style="opacity:1" fill="#93343f" d="M 270.5,296.5 C 270.59,299.152 269.924,301.485 268.5,303.5C 268.41,300.848 269.076,298.515 270.5,296.5 Z"/></g>
<g><path style="opacity:0.018" fill="#110506" d="M 734.5,284.5 C 736.784,291.877 738.284,299.544 739,307.5C 741.281,333.884 739.114,359.551 732.5,384.5C 738.25,351.316 738.917,317.983 734.5,284.5 Z"/></g>
<g><path style="opacity:1" fill="#302f2f" d="M 419.5,311.5 C 428.745,310.743 435.578,314.41 440,322.5C 441.67,339.829 433.837,347.329 416.5,345C 406.317,338.395 403.817,329.561 409,318.5C 412.043,315.246 415.543,312.913 419.5,311.5 Z"/></g>
<g><path style="opacity:1" fill="#2e2e2e" d="M 440.5,173.5 C 449.829,174.549 458.829,176.549 467.5,179.5C 466.761,179.369 466.094,179.536 465.5,180C 466.212,181.425 466.379,182.925 466,184.5C 467.296,183.932 468.796,183.932 470.5,184.5C 472.903,186.206 475.57,187.539 478.5,188.5C 477.833,188.833 477.167,189.167 476.5,189.5C 476.832,193.363 477.332,197.363 478,201.5C 479.202,199.447 479.536,197.447 479,195.5C 480.167,196.667 481.333,197.833 482.5,199C 481.692,199.308 481.025,199.808 480.5,200.5C 482.194,202.194 483.86,203.86 485.5,205.5C 485.277,206.967 484.944,208.467 484.5,210C 485.572,211.284 486.905,211.617 488.5,211C 489.59,213.97 491.256,214.303 493.5,212C 492.304,211.346 492.304,210.846 493.5,210.5C 493.833,211 494.167,211.5 494.5,212C 493.362,215.118 491.362,217.451 488.5,219C 489.479,220.779 489.146,222.445 487.5,224C 488.863,225.945 489.697,228.112 490,230.5C 490.333,229.5 490.667,228.5 491,227.5C 492,228.5 493,229.5 494,230.5C 495.773,228.323 497.939,226.49 500.5,225C 500.167,224.667 499.833,224.333 499.5,224C 501.709,222.127 503.542,219.96 505,217.5C 506.706,218.308 507.539,219.641 507.5,221.5C 500.344,232.472 493.177,243.472 486,254.5C 485.36,256.543 485.86,258.21 487.5,259.5C 486.527,259.987 485.527,260.487 484.5,261C 485.453,262.955 486.787,264.622 488.5,266C 487.584,266.278 486.918,266.778 486.5,267.5C 463.638,246.194 436.638,238.027 405.5,243C 370.242,252.758 347.909,275.258 338.5,310.5C 336.985,315.58 336.318,320.914 336.5,326.5C 336.501,330.349 336.835,334.016 337.5,337.5C 337.704,344.32 338.871,350.987 341,357.5C 358.67,399.143 390.17,418.643 435.5,416C 484.861,404.464 510.194,373.297 511.5,322.5C 512.166,326.353 512.833,330.353 513.5,334.5C 514.439,330.102 515.105,325.935 515.5,322C 514.833,321.333 514.167,320.667 513.5,320C 515.991,319.374 515.991,318.541 513.5,317.5C 514.441,317.511 515.108,317.011 515.5,316C 514.813,314.838 514.647,313.672 515,312.5C 515.667,313.833 516.333,313.833 517,312.5C 518.487,313.253 518.654,314.086 517.5,315C 519.121,317.166 519.955,319.666 520,322.5C 521.558,323.345 522.558,322.679 523,320.5C 523.5,321 524,321.5 524.5,322C 521.93,324.915 522.263,327.581 525.5,330C 525.167,330.333 524.833,330.667 524.5,331C 525.483,331.591 526.15,331.257 526.5,330C 525.714,328.248 525.88,326.414 527,324.5C 527.333,324.833 527.667,325.167 528,325.5C 526.886,327.669 527.386,329.502 529.5,331C 526.723,333.173 526.89,333.673 530,332.5C 530.374,333.416 530.874,334.25 531.5,335C 530.24,336.814 530.24,338.647 531.5,340.5C 531.833,339.833 532.167,339.167 532.5,338.5C 534.343,338.755 536.343,338.922 538.5,339C 537.284,340.74 535.618,341.74 533.5,342C 535.838,343.051 537.838,343.885 539.5,344.5C 535.661,348.45 535.661,352.283 539.5,356C 538.663,357.011 538.33,358.178 538.5,359.5C 543.392,358.876 544.558,360.542 542,364.5C 541.195,362.099 540.362,362.266 539.5,365C 540.668,366.406 540.335,367.572 538.5,368.5C 539.441,368.489 540.108,368.989 540.5,370C 539.813,371.162 539.647,372.328 540,373.5C 541,372.167 542,372.167 543,373.5C 543.333,372.5 543.667,371.5 544,370.5C 544.419,371.672 545.085,372.672 546,373.5C 547.791,371.971 549.458,370.304 551,368.5C 551.183,372.271 549.35,374.438 545.5,375C 544.941,375.725 544.608,376.558 544.5,377.5C 545.694,379.891 546.694,382.224 547.5,384.5C 548.719,383.737 549.719,382.737 550.5,381.5C 552.957,383.625 552.624,385.459 549.5,387C 552.064,388.851 552.064,390.684 549.5,392.5C 552.48,396.362 553.48,395.862 552.5,391C 553.825,391.148 554.992,390.982 556,390.5C 556.219,391.938 556.719,393.271 557.5,394.5C 558.425,393.359 559.259,393.359 560,394.5C 561.23,393.725 561.563,392.725 561,391.5C 557.975,392.791 557.641,392.124 560,389.5C 561.016,388.366 561.683,388.699 562,390.5C 562.5,389.333 563.333,388.5 564.5,388C 565.089,386.127 564.422,384.46 562.5,383C 563.717,381.352 564.55,379.519 565,377.5C 568.184,376.594 569.017,374.761 567.5,372C 568.167,371.667 568.833,371.333 569.5,371C 566.674,368.478 567.007,366.478 570.5,365C 569.833,363 569.167,361 568.5,359C 569.672,358.581 570.672,357.915 571.5,357C 570.483,355.951 570.316,354.784 571,353.5C 573.11,356.18 574.943,358.846 576.5,361.5C 560.429,423.393 521.762,463.06 460.5,480.5C 455.55,480.77 450.883,481.77 446.5,483.5C 382.528,490.418 331.695,468.085 294,416.5C 271.433,382.051 262.933,344.384 268.5,303.5C 269.924,301.485 270.59,299.152 270.5,296.5C 280.256,253.572 303.59,220.072 340.5,196C 358.389,184.981 377.722,177.814 398.5,174.5C 412.482,173.657 426.482,173.324 440.5,173.5 Z"/></g>
<g><path style="opacity:1" fill="#ad384a" d="M 338.5,310.5 C 337.782,319.482 337.448,328.482 337.5,337.5C 336.835,334.016 336.501,330.349 336.5,326.5C 336.318,320.914 336.985,315.58 338.5,310.5 Z"/></g>
<g><path style="opacity:1" fill="#7c333f" d="M 378.5,313.5 C 376.818,320.712 376.152,328.045 376.5,335.5C 375.349,330.35 375.183,325.016 376,319.5C 376.566,317.277 377.4,315.277 378.5,313.5 Z"/></g>
<g><path style="opacity:0.013" fill="#281317" d="M 113.5,379.5 C 115.046,383.93 116.046,388.596 116.5,393.5C 115.252,392.666 114.585,391.333 114.5,389.5C 113.947,386.183 113.614,382.85 113.5,379.5 Z"/></g>
<g><path style="opacity:1" fill="#f9425d" d="M 361.5,399.5 C 361.509,401.308 361.009,402.975 360,404.5C 350.835,417.492 342.169,430.826 334,444.5C 333.329,445.252 332.496,445.586 331.5,445.5C 326.941,442.298 322.441,438.964 318,435.5C 314.333,430.833 310.667,426.167 307,421.5C 306.333,420.5 306.333,419.5 307,418.5C 321.422,409.707 335.589,400.54 349.5,391C 350.5,390.333 351.5,390.333 352.5,391C 355.396,394.066 358.396,396.899 361.5,399.5 Z"/></g>
<g><path style="opacity:0.106" fill="#220e10" d="M 116.5,395.5 C 118.698,399.797 119.698,404.464 119.5,409.5C 118.883,409.389 118.383,409.056 118,408.5C 117.077,404.21 116.577,399.877 116.5,395.5 Z"/></g>
<g><path style="opacity:1" fill="#a63844" d="M 442.5,402.5 C 439.155,404.217 435.489,404.884 431.5,404.5C 434.974,403.475 438.64,402.808 442.5,402.5 Z"/></g>
<g><path style="opacity:0.033" fill="#1f0f10" d="M 731.5,393.5 C 730.041,403.624 727.875,413.624 725,423.5C 724.414,426.019 723.247,428.019 721.5,429.5C 724.28,417.295 727.613,405.295 731.5,393.5 Z"/></g>
<g><path style="opacity:1" fill="#36292d" d="M 361.5,399.5 C 363.377,400.659 363.877,402.326 363,404.5C 360.095,407.051 358.928,409.551 359.5,412C 357.321,412.442 356.655,413.442 357.5,415C 355.5,416.333 353.833,418 352.5,420C 353.345,421.558 352.679,422.558 350.5,423C 350.833,423.333 351.167,423.667 351.5,424C 349.321,424.442 348.655,425.442 349.5,427C 346.833,427.667 346.833,428.333 349.5,429C 346.057,429.404 344.724,431.071 345.5,434C 340.722,436.779 337.389,440.779 335.5,446C 333.934,446.765 332.601,446.598 331.5,445.5C 332.496,445.586 333.329,445.252 334,444.5C 342.169,430.826 350.835,417.492 360,404.5C 361.009,402.975 361.509,401.308 361.5,399.5 Z"/></g>
<g><path style="opacity:0.031" fill="#1e0e10" d="M 119.5,409.5 C 124.799,422.891 129.632,436.557 134,450.5C 139.832,460.819 144.998,471.486 149.5,482.5C 147.917,481.064 146.417,479.398 145,477.5C 133.307,456.017 124.807,433.35 119.5,409.5 Z"/></g>
<g><path style="opacity:0.032" fill="#1a0a0b" d="M 721.5,429.5 C 719.872,437.504 717.539,445.338 714.5,453C 710.395,460.236 706.895,467.736 704,475.5C 702.317,479.336 699.817,482.336 696.5,484.5C 705.32,466.359 713.654,448.026 721.5,429.5 Z"/></g>
<g><path style="opacity:1" fill="#9c3842" d="M 460.5,480.5 C 456.117,482.23 451.45,483.23 446.5,483.5C 450.883,481.77 455.55,480.77 460.5,480.5 Z"/></g>
<g><path style="opacity:0.012" fill="#1a0707" d="M 696.5,484.5 C 696.741,487.034 695.741,488.7 693.5,489.5C 694.11,487.566 695.11,485.899 696.5,484.5 Z"/></g>
<g><path style="opacity:0.028" fill="#1c0a0c" d="M 149.5,482.5 C 161.248,501.64 174.248,519.973 188.5,537.5C 179.523,529.676 171.689,520.676 165,510.5C 158.798,501.715 153.631,492.382 149.5,482.5 Z"/></g>
<g><path style="opacity:0.034" fill="#1b0a0a" d="M 693.5,489.5 C 691.636,494.232 689.469,498.899 687,503.5C 681.384,512.769 675.051,521.435 668,529.5C 657.692,540.062 647.525,550.729 637.5,561.5C 633.041,565.566 628.375,569.399 623.5,573C 622.552,573.483 621.552,573.649 620.5,573.5C 649.225,549.123 673.558,521.123 693.5,489.5 Z"/></g>
<g><path style="opacity:0.023" fill="#160507" d="M 188.5,537.5 C 200.891,549.893 213.557,561.893 226.5,573.5C 211.539,563.871 198.872,551.871 188.5,537.5 Z"/></g>
<g><path style="opacity:0.235" fill="#3e131a" d="M 226.5,573.5 C 228.404,573.738 229.738,574.738 230.5,576.5C 228.596,576.262 227.262,575.262 226.5,573.5 Z"/></g>
<g><path style="opacity:0.014" fill="#16080a" d="M 620.5,573.5 C 618.382,577.574 615.049,580.241 610.5,581.5C 613.52,578.484 616.854,575.817 620.5,573.5 Z"/></g>
<g><path style="opacity:0.022" fill="#170708" d="M 610.5,581.5 C 606.027,586.126 601.027,590.293 595.5,594C 584.58,600.191 573.58,606.191 562.5,612C 560.866,612.494 559.199,612.66 557.5,612.5C 566.349,607.589 575.349,602.755 584.5,598C 593.054,592.229 601.721,586.729 610.5,581.5 Z"/></g>
<g><path style="opacity:0.033" fill="#160709" d="M 230.5,576.5 C 254.614,594.052 280.281,608.719 307.5,620.5C 280.273,611.042 255.273,597.542 232.5,580C 231.177,579.184 230.511,578.017 230.5,576.5 Z"/></g>
<g><path style="opacity:0.021" fill="#1d0a0d" d="M 557.5,612.5 C 554.793,615.864 551.126,617.531 546.5,617.5C 549.751,615.043 553.418,613.376 557.5,612.5 Z"/></g>
<g><path style="opacity:0.01" fill="#170808" d="M 308.5,620.5 C 310.153,620.66 311.486,621.326 312.5,622.5C 310.517,622.843 309.183,622.176 308.5,620.5 Z"/></g>
<g><path style="opacity:0.066" fill="#130507" d="M 312.5,622.5 C 331.857,629.496 351.857,634.496 372.5,637.5C 377.616,638.806 382.949,639.473 388.5,639.5C 396.742,640.673 405.075,641.339 413.5,641.5C 419.979,642.491 426.646,642.824 433.5,642.5C 430.517,643.388 427.35,644.054 424,644.5C 409.193,643.07 394.359,641.904 379.5,641C 365.797,638.551 352.13,635.884 338.5,633C 329.384,630.548 320.717,627.048 312.5,622.5 Z"/></g>
<g><path style="opacity:0.478" fill="#c13b4e" d="M 372.5,637.5 C 378.069,637.376 383.402,638.043 388.5,639.5C 382.949,639.473 377.616,638.806 372.5,637.5 Z"/></g>
<g><path style="opacity:0.056" fill="#200d0f" d="M 546.5,617.5 C 530.653,626.234 513.653,632.4 495.5,636C 486.359,636.958 477.359,638.624 468.5,641C 456.864,642.193 445.197,642.693 433.5,642.5C 426.646,642.824 419.979,642.491 413.5,641.5C 448.016,642.144 481.683,637.977 514.5,629C 525.095,624.865 535.761,621.031 546.5,617.5 Z"/></g>
</svg>
